<svg width="71" height="20" viewBox="0 0 71 20" fill="none" xmlns="http://www.w3.org/2000/svg">
<path d="M3.008 15.5C2.83733 15.5 2.69867 15.452 2.592 15.356C2.496 15.26 2.43733 15.1427 2.416 15.004L0.592 4.748C0.581333 4.72667 0.576 4.70533 0.576 4.684C0.576 4.66267 0.576 4.64667 0.576 4.636C0.576 4.55067 0.608 4.476 0.672 4.412C0.736 4.33733 0.816 4.3 0.912 4.3H2.592C2.86933 4.3 3.024 4.412 3.056 4.636L4.256 11.404L5.552 7.196C5.584 7.11067 5.63733 7.02 5.712 6.924C5.78667 6.828 5.90933 6.78 6.08 6.78H7.088C7.25867 6.78 7.38133 6.828 7.456 6.924C7.53067 7.02 7.57867 7.11067 7.6 7.196L8.912 11.388L10.096 4.636C10.128 4.412 10.288 4.3 10.576 4.3H12.256C12.352 4.3 12.432 4.33733 12.496 4.412C12.56 4.476 12.592 4.55067 12.592 4.636C12.592 4.64667 12.592 4.66267 12.592 4.684C12.592 4.70533 12.5867 4.72667 12.576 4.748L10.752 15.004C10.7307 15.1427 10.6667 15.26 10.56 15.356C10.464 15.452 10.3307 15.5 10.16 15.5H8.864C8.69333 15.5 8.56 15.4573 8.464 15.372C8.37867 15.276 8.32 15.18 8.288 15.084L6.576 10.124L4.88 15.084C4.848 15.18 4.784 15.276 4.688 15.372C4.60267 15.4573 4.46933 15.5 4.288 15.5H3.008ZM17.6754 15.66C16.79 15.66 16.0487 15.516 15.4514 15.228C14.854 14.9293 14.3954 14.508 14.0754 13.964C13.766 13.42 13.5954 12.7853 13.5634 12.06C13.5527 11.8467 13.5474 11.6067 13.5474 11.34C13.5474 11.0627 13.5527 10.8227 13.5634 10.62C13.5954 9.884 13.7767 9.24933 14.1074 8.716C14.438 8.172 14.902 7.756 15.4994 7.468C16.0967 7.16933 16.822 7.02 17.6754 7.02C18.518 7.02 19.238 7.16933 19.8354 7.468C20.4327 7.756 20.8967 8.172 21.2274 8.716C21.558 9.24933 21.7394 9.884 21.7714 10.62C21.7927 10.8227 21.8034 11.0627 21.8034 11.34C21.8034 11.6067 21.7927 11.8467 21.7714 12.06C21.7394 12.7853 21.5634 13.42 21.2434 13.964C20.934 14.508 20.4807 14.9293 19.8834 15.228C19.286 15.516 18.55 15.66 17.6754 15.66ZM17.6754 13.9C18.198 13.9 18.5927 13.74 18.8594 13.42C19.126 13.0893 19.27 12.6093 19.2914 11.98C19.302 11.82 19.3074 11.6067 19.3074 11.34C19.3074 11.0733 19.302 10.86 19.2914 10.7C19.27 10.0813 19.126 9.60667 18.8594 9.276C18.5927 8.94533 18.198 8.78 17.6754 8.78C17.1527 8.78 16.7527 8.94533 16.4754 9.276C16.2087 9.60667 16.0647 10.0813 16.0434 10.7C16.0327 10.86 16.0274 11.0733 16.0274 11.34C16.0274 11.6067 16.0327 11.82 16.0434 11.98C16.0647 12.6093 16.2087 13.0893 16.4754 13.42C16.7527 13.74 17.1527 13.9 17.6754 13.9ZM23.8608 15.5C23.7541 15.5 23.6634 15.4627 23.5888 15.388C23.5141 15.3133 23.4768 15.2173 23.4768 15.1V7.58C23.4768 7.46267 23.5141 7.36667 23.5888 7.292C23.6634 7.21733 23.7541 7.18 23.8608 7.18H25.3488C25.4554 7.18 25.5461 7.21733 25.6208 7.292C25.7061 7.36667 25.7488 7.46267 25.7488 7.58V8.124C25.9621 7.82533 26.2554 7.56933 26.6288 7.356C27.0128 7.14267 27.4661 7.03067 27.9888 7.02C29.2261 6.99867 30.0741 7.468 30.5328 8.428C30.7781 8.012 31.1301 7.676 31.5888 7.42C32.0581 7.15333 32.5701 7.02 33.1248 7.02C33.6794 7.02 34.1808 7.148 34.6288 7.404C35.0768 7.64933 35.4288 8.03333 35.6848 8.556C35.9514 9.068 36.0848 9.72933 36.0848 10.54V15.1C36.0848 15.2173 36.0474 15.3133 35.9728 15.388C35.8981 15.4627 35.8074 15.5 35.7008 15.5H34.1168C34.0101 15.5 33.9194 15.4627 33.8448 15.388C33.7701 15.3133 33.7328 15.2173 33.7328 15.1V10.668C33.7328 10.2307 33.6688 9.88933 33.5408 9.644C33.4128 9.388 33.2421 9.20667 33.0288 9.1C32.8261 8.99333 32.5968 8.94 32.3408 8.94C32.1168 8.94 31.8981 8.99333 31.6848 9.1C31.4821 9.20667 31.3114 9.388 31.1728 9.644C31.0448 9.88933 30.9808 10.2307 30.9808 10.668V15.1C30.9808 15.2173 30.9434 15.3133 30.8688 15.388C30.7941 15.4627 30.6981 15.5 30.5808 15.5H29.0128C28.8954 15.5 28.7994 15.4627 28.7248 15.388C28.6501 15.3133 28.6128 15.2173 28.6128 15.1V10.668C28.6128 10.2307 28.5488 9.88933 28.4208 9.644C28.2928 9.388 28.1221 9.20667 27.9088 9.1C27.7061 8.99333 27.4821 8.94 27.2368 8.94C27.0128 8.94 26.7941 8.99867 26.5807 9.116C26.3674 9.22267 26.1914 9.39867 26.0528 9.644C25.9248 9.88933 25.8608 10.2253 25.8608 10.652V15.1C25.8608 15.2173 25.8234 15.3133 25.7488 15.388C25.6741 15.4627 25.5834 15.5 25.4768 15.5H23.8608ZM41.7356 15.66C40.509 15.66 39.533 15.3187 38.8076 14.636C38.093 13.9533 37.7143 12.9613 37.6716 11.66C37.6716 11.5747 37.6716 11.4627 37.6716 11.324C37.6716 11.1747 37.6716 11.0573 37.6716 10.972C37.7143 10.1507 37.901 9.44667 38.2316 8.86C38.5623 8.26267 39.0263 7.80933 39.6236 7.5C40.221 7.18 40.9196 7.02 41.7196 7.02C42.6156 7.02 43.3623 7.20667 43.9596 7.58C44.5676 7.94267 45.021 8.444 45.3196 9.084C45.629 9.71333 45.7836 10.4387 45.7836 11.26V11.628C45.7836 11.7347 45.741 11.8253 45.6556 11.9C45.581 11.9747 45.4903 12.012 45.3836 12.012H40.1516C40.1516 12.0227 40.1516 12.044 40.1516 12.076C40.1516 12.0973 40.1516 12.1187 40.1516 12.14C40.1623 12.4813 40.2263 12.796 40.3436 13.084C40.4716 13.3613 40.6476 13.5853 40.8716 13.756C41.1063 13.9267 41.3836 14.012 41.7036 14.012C41.9703 14.012 42.189 13.9747 42.3596 13.9C42.5303 13.8253 42.669 13.7347 42.7756 13.628C42.893 13.5213 42.9783 13.4307 43.0316 13.356C43.1276 13.2493 43.2023 13.1853 43.2556 13.164C43.3196 13.132 43.4156 13.116 43.5436 13.116H45.2076C45.3143 13.116 45.3996 13.148 45.4636 13.212C45.5383 13.2653 45.5703 13.3453 45.5596 13.452C45.549 13.6227 45.4583 13.836 45.2876 14.092C45.1276 14.3373 44.8876 14.5827 44.5676 14.828C44.2476 15.0627 43.8476 15.26 43.3676 15.42C42.8983 15.58 42.3543 15.66 41.7356 15.66ZM40.1516 10.556H43.2876V10.524C43.2876 10.14 43.2236 9.80933 43.0956 9.532C42.9783 9.244 42.8023 9.02 42.5676 8.86C42.333 8.7 42.0503 8.62 41.7196 8.62C41.389 8.62 41.1063 8.7 40.8716 8.86C40.637 9.02 40.4556 9.244 40.3276 9.532C40.2103 9.80933 40.1516 10.14 40.1516 10.524V10.556ZM47.767 15.5C47.6603 15.5 47.5697 15.4627 47.495 15.388C47.4203 15.3133 47.383 15.2173 47.383 15.1V7.58C47.383 7.46267 47.4203 7.36667 47.495 7.292C47.5697 7.21733 47.6603 7.18 47.767 7.18H49.335C49.4523 7.18 49.5483 7.21733 49.623 7.292C49.6977 7.36667 49.735 7.46267 49.735 7.58V8.204C50.0123 7.86267 50.3697 7.58 50.807 7.356C51.2443 7.132 51.7777 7.02 52.407 7.02C53.0363 7.02 53.5857 7.164 54.055 7.452C54.535 7.72933 54.9083 8.14 55.175 8.684C55.4523 9.21733 55.591 9.868 55.591 10.636V15.1C55.591 15.2173 55.5483 15.3133 55.463 15.388C55.3883 15.4627 55.2977 15.5 55.191 15.5H53.495C53.3777 15.5 53.2817 15.4627 53.207 15.388C53.1323 15.3133 53.095 15.2173 53.095 15.1V10.732C53.095 10.1667 52.9563 9.72933 52.679 9.42C52.4123 9.1 52.0177 8.94 51.495 8.94C50.9937 8.94 50.5937 9.1 50.295 9.42C49.9963 9.72933 49.847 10.1667 49.847 10.732V15.1C49.847 15.2173 49.8097 15.3133 49.735 15.388C49.6603 15.4627 49.5697 15.5 49.463 15.5H47.767Z" fill="#232321"/>
<path d="M61.315 8.43922L61.315 8.4392C61.0145 8.08948 61.2629 7.54932 61.7233 7.54932H68.2764C68.7369 7.54932 68.9853 8.0895 68.6857 8.43922L65.4096 12.2623C65.359 12.3214 65.2962 12.3687 65.2256 12.4012C65.1549 12.4337 65.0781 12.4505 65.0004 12.4505C64.9226 12.4505 64.8458 12.4337 64.7751 12.4012C64.7045 12.3687 64.6417 12.3214 64.5911 12.2623L61.315 8.43922Z" fill="#232321" stroke="#232321" stroke-width="0.046875"/>
</svg>
