<svg width="47" height="20" viewBox="0 0 47 20" fill="none" xmlns="http://www.w3.org/2000/svg">
<path d="M1.584 15.5C1.47733 15.5 1.38133 15.4627 1.296 15.388C1.22133 15.3133 1.184 15.2173 1.184 15.1V4.7C1.184 4.58267 1.22133 4.48667 1.296 4.412C1.38133 4.33733 1.47733 4.3 1.584 4.3H3.072C3.232 4.3 3.34933 4.34267 3.424 4.428C3.50933 4.51333 3.568 4.57733 3.6 4.62L6.544 10.044L9.52 4.62C9.54133 4.57733 9.58933 4.51333 9.664 4.428C9.74933 4.34267 9.872 4.3 10.032 4.3H11.52C11.6373 4.3 11.7333 4.33733 11.808 4.412C11.8827 4.48667 11.92 4.58267 11.92 4.7V15.1C11.92 15.2173 11.8827 15.3133 11.808 15.388C11.7333 15.4627 11.6373 15.5 11.52 15.5H9.888C9.78133 15.5 9.69067 15.4627 9.616 15.388C9.54133 15.3133 9.504 15.2173 9.504 15.1V8.636L7.472 12.444C7.41867 12.54 7.34933 12.6253 7.264 12.7C7.17867 12.7747 7.06667 12.812 6.928 12.812H6.176C6.03733 12.812 5.92533 12.7747 5.84 12.7C5.75467 12.6253 5.68533 12.54 5.632 12.444L3.6 8.636V15.1C3.6 15.2173 3.56267 15.3133 3.488 15.388C3.41333 15.4627 3.32267 15.5 3.216 15.5H1.584ZM17.8294 15.66C16.6027 15.66 15.6267 15.3187 14.9014 14.636C14.1867 13.9533 13.808 12.9613 13.7654 11.66C13.7654 11.5747 13.7654 11.4627 13.7654 11.324C13.7654 11.1747 13.7654 11.0573 13.7654 10.972C13.808 10.1507 13.9947 9.44667 14.3254 8.86C14.656 8.26267 15.12 7.80933 15.7174 7.5C16.3147 7.18 17.0134 7.02 17.8134 7.02C18.7094 7.02 19.456 7.20667 20.0534 7.58C20.6614 7.94267 21.1147 8.444 21.4134 9.084C21.7227 9.71333 21.8774 10.4387 21.8774 11.26V11.628C21.8774 11.7347 21.8347 11.8253 21.7494 11.9C21.6747 11.9747 21.584 12.012 21.4774 12.012H16.2454C16.2454 12.0227 16.2454 12.044 16.2454 12.076C16.2454 12.0973 16.2454 12.1187 16.2454 12.14C16.256 12.4813 16.32 12.796 16.4374 13.084C16.5654 13.3613 16.7414 13.5853 16.9654 13.756C17.2 13.9267 17.4774 14.012 17.7974 14.012C18.064 14.012 18.2827 13.9747 18.4534 13.9C18.624 13.8253 18.7627 13.7347 18.8694 13.628C18.9867 13.5213 19.072 13.4307 19.1254 13.356C19.2214 13.2493 19.296 13.1853 19.3494 13.164C19.4134 13.132 19.5094 13.116 19.6374 13.116H21.3014C21.408 13.116 21.4934 13.148 21.5574 13.212C21.632 13.2653 21.664 13.3453 21.6534 13.452C21.6427 13.6227 21.552 13.836 21.3814 14.092C21.2214 14.3373 20.9814 14.5827 20.6614 14.828C20.3414 15.0627 19.9414 15.26 19.4614 15.42C18.992 15.58 18.448 15.66 17.8294 15.66ZM16.2454 10.556H19.3814V10.524C19.3814 10.14 19.3174 9.80933 19.1894 9.532C19.072 9.244 18.896 9.02 18.6614 8.86C18.4267 8.7 18.144 8.62 17.8134 8.62C17.4827 8.62 17.2 8.7 16.9654 8.86C16.7307 9.02 16.5494 9.244 16.4214 9.532C16.304 9.80933 16.2454 10.14 16.2454 10.524V10.556ZM23.8608 15.5C23.7541 15.5 23.6634 15.4627 23.5888 15.388C23.5141 15.3133 23.4768 15.2173 23.4768 15.1V7.58C23.4768 7.46267 23.5141 7.36667 23.5888 7.292C23.6634 7.21733 23.7541 7.18 23.8608 7.18H25.4288C25.5461 7.18 25.6421 7.21733 25.7168 7.292C25.7914 7.36667 25.8288 7.46267 25.8288 7.58V8.204C26.1061 7.86267 26.4634 7.58 26.9008 7.356C27.3381 7.132 27.8714 7.02 28.5008 7.02C29.1301 7.02 29.6794 7.164 30.1488 7.452C30.6288 7.72933 31.0021 8.14 31.2688 8.684C31.5461 9.21733 31.6848 9.868 31.6848 10.636V15.1C31.6848 15.2173 31.6421 15.3133 31.5568 15.388C31.4821 15.4627 31.3914 15.5 31.2847 15.5H29.5888C29.4714 15.5 29.3754 15.4627 29.3008 15.388C29.2261 15.3133 29.1888 15.2173 29.1888 15.1V10.732C29.1888 10.1667 29.0501 9.72933 28.7728 9.42C28.5061 9.1 28.1114 8.94 27.5888 8.94C27.0874 8.94 26.6874 9.1 26.3888 9.42C26.0901 9.72933 25.9408 10.1667 25.9408 10.732V15.1C25.9408 15.2173 25.9034 15.3133 25.8288 15.388C25.7541 15.4627 25.6634 15.5 25.5568 15.5H23.8608Z" fill="#232321"/>
<path d="M37.315 8.43922L37.315 8.4392C37.0145 8.08948 37.2629 7.54932 37.7233 7.54932H44.2764C44.7369 7.54932 44.9853 8.0895 44.6857 8.43922L41.4096 12.2623C41.359 12.3214 41.2962 12.3687 41.2256 12.4012C41.1549 12.4337 41.0781 12.4505 41.0004 12.4505C40.9226 12.4505 40.8458 12.4337 40.7751 12.4012C40.7045 12.3687 40.6417 12.3214 40.5911 12.2623L37.315 8.43922Z" fill="#232321" stroke="#232321" stroke-width="0.046875"/>
</svg>
